<?xml version="1.0" encoding="utf-8"?>
<!-- Generator: Adobe Illustrator 16.0.0, SVG Export Plug-In . SVG Version: 6.00 Build 0)  -->
<!DOCTYPE svg PUBLIC "-//W3C//DTD SVG 1.1//EN" "http://www.w3.org/Graphics/SVG/1.1/DTD/svg11.dtd">
<svg version="1.1" xmlns="http://www.w3.org/2000/svg" xmlns:xlink="http://www.w3.org/1999/xlink" x="0px" y="0px" width="394px"
	 height="50px" viewBox="0 0 394 50" enable-background="new 0 0 394 50" xml:space="preserve">
<g id="Layer_3" display="none">
	<rect x="-109.5" y="-53" display="inline" width="698" height="209"/>
</g>
<g id="gym_beacons">
	<g>
		<path fill="#FFFFFF" d="M22.568,38.835c1.307,0,2.464-0.112,3.472-0.336s1.96-0.522,2.856-0.896v-6.188h-4.032
			c-0.597,0-1.064-0.158-1.4-0.476s-0.504-0.719-0.504-1.204v-5.208h14.504v17.22c-1.045,0.766-2.133,1.424-3.262,1.974
			c-1.13,0.551-2.334,1.004-3.612,1.358c-1.279,0.354-2.642,0.616-4.088,0.784c-1.447,0.168-3.001,0.252-4.662,0.252
			c-2.987,0-5.75-0.527-8.288-1.582s-4.736-2.511-6.594-4.368s-3.313-4.06-4.368-6.608c-1.055-2.548-1.582-5.314-1.582-8.302
			c0-3.042,0.504-5.838,1.512-8.386c1.008-2.548,2.45-4.746,4.326-6.594S10.99,6.99,13.65,5.963c2.66-1.026,5.632-1.54,8.918-1.54
			c1.699,0,3.294,0.14,4.788,0.42c1.493,0.28,2.87,0.663,4.13,1.148c1.26,0.485,2.413,1.064,3.458,1.736s1.979,1.4,2.8,2.184
			L35,14.083c-0.262,0.392-0.574,0.7-0.938,0.924c-0.364,0.224-0.761,0.336-1.19,0.336c-0.56,0-1.139-0.186-1.736-0.56
			c-0.747-0.448-1.452-0.835-2.114-1.162s-1.339-0.592-2.03-0.798c-0.691-0.205-1.419-0.354-2.184-0.448
			c-0.766-0.093-1.624-0.14-2.576-0.14c-1.773,0-3.37,0.313-4.788,0.938c-1.418,0.626-2.627,1.508-3.626,2.646
			c-0.999,1.139-1.769,2.506-2.31,4.102c-0.542,1.596-0.812,3.374-0.812,5.334c0,2.166,0.298,4.088,0.896,5.769
			c0.597,1.68,1.423,3.099,2.478,4.256s2.305,2.039,3.752,2.646C19.269,38.532,20.851,38.835,22.568,38.835z"/>
		<path fill="#FFFFFF" d="M57.959,30.155v15.512h-9.464V30.155L33.711,4.871h8.344c0.821,0,1.474,0.191,1.96,0.574
			c0.485,0.383,0.877,0.873,1.176,1.47l5.768,11.872c0.466,0.952,0.896,1.83,1.288,2.632c0.392,0.803,0.737,1.596,1.036,2.38
			c0.28-0.802,0.616-1.605,1.008-2.408s0.812-1.67,1.26-2.604l5.712-11.872c0.112-0.242,0.266-0.485,0.462-0.728
			c0.196-0.242,0.42-0.462,0.672-0.658c0.252-0.196,0.541-0.354,0.868-0.476c0.326-0.122,0.686-0.182,1.078-0.182h8.4L57.959,30.155
			z"/>
		<path fill="#FFFFFF" d="M91.881,29.229c0.345,0.767,0.676,1.551,0.994,2.354c0.317-0.822,0.653-1.621,1.008-2.396
			c0.354-0.775,0.718-1.527,1.092-2.256L105.447,6.3c0.187-0.355,0.378-0.63,0.574-0.827c0.196-0.196,0.416-0.341,0.658-0.434
			c0.242-0.094,0.518-0.141,0.826-0.141c0.308,0,0.667,0,1.078,0h7.224v40.768h-8.344V22.203c0-1.139,0.056-2.371,0.168-3.696
			L96.823,39.479c-0.336,0.654-0.789,1.148-1.358,1.484c-0.57,0.336-1.218,0.504-1.946,0.504H92.23
			c-0.728,0-1.376-0.168-1.946-0.504c-0.57-0.336-1.022-0.83-1.358-1.484l-10.864-21c0.075,0.654,0.13,1.302,0.168,1.946
			s0.056,1.237,0.056,1.778v23.464h-8.344V4.899h7.224c0.411,0,0.77,0,1.078,0s0.583,0.047,0.826,0.141
			c0.242,0.093,0.462,0.238,0.658,0.434c0.196,0.196,0.387,0.472,0.574,0.827l10.5,20.714
			C91.176,27.725,91.535,28.463,91.881,29.229z"/>
		<path fill="#FFFFFF" d="M124.366,45.667V4.871h15.008c2.818,0,5.217,0.262,7.196,0.784c1.979,0.523,3.593,1.26,4.844,2.212
			c1.25,0.952,2.16,2.109,2.73,3.472c0.569,1.363,0.854,2.884,0.854,4.564c0,0.915-0.131,1.797-0.392,2.646
			c-0.262,0.85-0.672,1.648-1.232,2.394c-0.56,0.747-1.279,1.424-2.156,2.03s-1.932,1.134-3.164,1.582
			c2.688,0.654,4.676,1.712,5.964,3.178c1.288,1.465,1.932,3.346,1.932,5.642c0,1.736-0.336,3.351-1.008,4.844
			c-0.672,1.494-1.657,2.796-2.954,3.906s-2.898,1.979-4.802,2.604c-1.904,0.626-4.079,0.938-6.524,0.938H124.366z M133.83,22.035
			h4.928c1.045,0,1.988-0.075,2.828-0.224s1.554-0.411,2.142-0.784c0.588-0.373,1.036-0.886,1.344-1.54
			c0.308-0.653,0.462-1.474,0.462-2.464c0-0.97-0.122-1.778-0.364-2.422c-0.243-0.644-0.616-1.162-1.12-1.554
			s-1.144-0.672-1.918-0.84c-0.775-0.168-1.694-0.252-2.758-0.252h-5.544V22.035z M133.83,28.363v10.164h6.664
			c1.25,0,2.272-0.159,3.066-0.477c0.793-0.317,1.414-0.728,1.862-1.231s0.756-1.073,0.924-1.708s0.252-1.278,0.252-1.933
			c0-0.746-0.098-1.418-0.294-2.016c-0.196-0.598-0.532-1.102-1.008-1.512c-0.476-0.411-1.106-0.729-1.89-0.952
			c-0.784-0.225-1.773-0.336-2.968-0.336H133.83z"/>
		<path fill="#FFFFFF" d="M181.765,4.871v7.28h-16.744v9.52h12.824v7h-12.824v9.716h16.744v7.28h-26.264V4.871H181.765z"/>
		<path fill="#FFFFFF" d="M219.509,45.667h-7.336c-0.822,0-1.498-0.191-2.03-0.574c-0.532-0.382-0.9-0.872-1.105-1.47l-2.408-7.112
			h-15.512l-2.408,7.112c-0.187,0.522-0.551,0.994-1.092,1.414c-0.542,0.42-1.204,0.63-1.988,0.63h-7.392l15.792-40.796h9.688
			L219.509,45.667z M193.301,30.071h11.144l-3.752-11.172c-0.242-0.709-0.527-1.544-0.854-2.506
			c-0.327-0.961-0.649-2.002-0.966-3.122c-0.299,1.139-0.607,2.194-0.925,3.164c-0.317,0.971-0.616,1.811-0.896,2.52L193.301,30.071
			z"/>
		<path fill="#FFFFFF" d="M242.944,35.111c0.225,0,0.448,0.042,0.672,0.126c0.225,0.084,0.438,0.229,0.645,0.434l3.752,3.948
			c-1.643,2.146-3.701,3.766-6.174,4.857c-2.474,1.093-5.399,1.639-8.778,1.639c-3.099,0-5.875-0.527-8.33-1.582
			s-4.536-2.511-6.244-4.368s-3.02-4.06-3.934-6.608c-0.915-2.548-1.372-5.314-1.372-8.302c0-3.042,0.522-5.838,1.568-8.386
			c1.045-2.548,2.506-4.746,4.382-6.594s4.12-3.285,6.733-4.312c2.613-1.026,5.498-1.54,8.652-1.54c1.53,0,2.973,0.136,4.326,0.406
			s2.618,0.644,3.794,1.12c1.176,0.476,2.259,1.045,3.248,1.708s1.866,1.396,2.632,2.198l-3.192,4.284
			c-0.205,0.261-0.447,0.5-0.728,0.714c-0.28,0.215-0.672,0.322-1.176,0.322c-0.336,0-0.654-0.074-0.952-0.224
			c-0.299-0.149-0.616-0.332-0.952-0.546c-0.336-0.214-0.705-0.448-1.105-0.7c-0.402-0.252-0.878-0.485-1.429-0.7
			c-0.551-0.214-1.194-0.396-1.932-0.546s-1.601-0.224-2.59-0.224c-1.718,0-3.286,0.304-4.704,0.91
			c-1.419,0.607-2.637,1.475-3.654,2.604s-1.811,2.497-2.38,4.102s-0.854,3.407-0.854,5.404c0,2.091,0.284,3.948,0.854,5.572
			s1.344,2.991,2.324,4.102c0.979,1.111,2.123,1.956,3.43,2.534c1.307,0.579,2.706,0.868,4.2,0.868c0.858,0,1.643-0.042,2.352-0.126
			c0.71-0.084,1.367-0.229,1.975-0.435c0.606-0.205,1.185-0.471,1.735-0.798c0.551-0.326,1.106-0.732,1.666-1.218
			c0.225-0.187,0.467-0.34,0.729-0.462C242.394,35.172,242.665,35.111,242.944,35.111z"/>
		<path fill="#FFFFFF" d="M286.988,25.255c0,2.95-0.509,5.693-1.525,8.232c-1.018,2.538-2.45,4.746-4.299,6.622
			c-1.848,1.876-4.073,3.346-6.678,4.409c-2.604,1.064-5.492,1.597-8.666,1.597s-6.066-0.532-8.68-1.597
			c-2.613-1.063-4.849-2.533-6.706-4.409s-3.295-4.084-4.313-6.622c-1.018-2.539-1.525-5.282-1.525-8.232
			c0-2.949,0.508-5.693,1.525-8.232c1.018-2.539,2.455-4.741,4.313-6.608c1.857-1.866,4.093-3.332,6.706-4.396
			s5.506-1.596,8.68-1.596s6.063,0.537,8.666,1.61c2.604,1.073,4.83,2.543,6.678,4.41c1.849,1.867,3.281,4.07,4.299,6.608
			C286.479,19.59,286.988,22.325,286.988,25.255z M277.301,25.255c0-2.016-0.262-3.831-0.784-5.446
			c-0.522-1.614-1.274-2.982-2.254-4.102c-0.98-1.12-2.18-1.979-3.599-2.576c-1.418-0.597-3.033-0.896-4.844-0.896
			c-1.829,0-3.458,0.299-4.886,0.896c-1.428,0.598-2.632,1.456-3.612,2.576c-0.979,1.12-1.731,2.488-2.254,4.102
			c-0.522,1.615-0.784,3.43-0.784,5.446c0,2.035,0.262,3.859,0.784,5.474c0.522,1.615,1.274,2.982,2.254,4.103
			c0.98,1.12,2.185,1.974,3.612,2.562c1.428,0.589,3.057,0.883,4.886,0.883c1.811,0,3.426-0.294,4.844-0.883
			c1.419-0.588,2.618-1.441,3.599-2.562c0.979-1.12,1.731-2.487,2.254-4.103C277.039,29.114,277.301,27.29,277.301,25.255z"/>
		<path fill="#FFFFFF" d="M291.943,4.927c0.28,0.038,0.532,0.108,0.757,0.21c0.224,0.103,0.438,0.248,0.644,0.434
			c0.205,0.187,0.438,0.439,0.7,0.756l19.376,24.5c-0.075-0.784-0.131-1.545-0.168-2.282c-0.038-0.737-0.056-1.433-0.056-2.086
			V4.871h8.344v40.796h-4.929c-0.728,0-1.344-0.112-1.848-0.336s-0.989-0.635-1.456-1.232l-19.235-24.304
			c0.056,0.709,0.102,1.405,0.14,2.086c0.037,0.682,0.056,1.321,0.056,1.918v21.868h-8.344V4.871h4.984
			C291.318,4.871,291.664,4.89,291.943,4.927z"/>
		<path fill="#FFFFFF" d="M345.396,13.159c-0.28,0.448-0.574,0.784-0.882,1.008s-0.705,0.336-1.19,0.336
			c-0.429,0-0.892-0.135-1.386-0.406s-1.055-0.574-1.68-0.91c-0.626-0.336-1.34-0.639-2.143-0.91
			c-0.803-0.27-1.717-0.406-2.743-0.406c-1.774,0-3.095,0.378-3.962,1.134c-0.868,0.756-1.303,1.778-1.303,3.066
			c0,0.822,0.262,1.503,0.784,2.044s1.208,1.008,2.058,1.4s1.82,0.751,2.912,1.078c1.093,0.327,2.208,0.691,3.347,1.092
			c1.138,0.401,2.254,0.873,3.346,1.414s2.063,1.232,2.912,2.072c0.849,0.84,1.535,1.862,2.058,3.066s0.784,2.655,0.784,4.354
			c0,1.886-0.327,3.649-0.979,5.292c-0.654,1.643-1.602,3.076-2.843,4.298c-1.241,1.223-2.771,2.185-4.592,2.885
			c-1.82,0.699-3.888,1.05-6.202,1.05c-1.27,0-2.562-0.131-3.878-0.393c-1.315-0.261-2.59-0.63-3.821-1.105
			c-1.232-0.477-2.39-1.041-3.473-1.694s-2.025-1.381-2.828-2.184l2.801-4.424c0.205-0.337,0.494-0.606,0.867-0.813
			c0.373-0.205,0.774-0.308,1.204-0.308c0.561,0,1.125,0.178,1.694,0.531c0.569,0.355,1.213,0.747,1.932,1.177
			s1.545,0.821,2.479,1.176c0.933,0.354,2.034,0.532,3.304,0.532c1.717,0,3.052-0.378,4.004-1.135
			c0.952-0.756,1.428-1.955,1.428-3.598c0-0.952-0.261-1.727-0.783-2.324c-0.523-0.597-1.209-1.092-2.059-1.483
			c-0.85-0.393-1.815-0.737-2.897-1.036c-1.083-0.299-2.194-0.63-3.332-0.994c-1.139-0.364-2.25-0.813-3.332-1.344
			c-1.083-0.532-2.049-1.232-2.898-2.1c-0.85-0.868-1.535-1.951-2.058-3.248c-0.523-1.297-0.784-2.898-0.784-4.802
			c0-1.53,0.308-3.024,0.924-4.48s1.521-2.753,2.716-3.892c1.194-1.138,2.66-2.048,4.396-2.73c1.735-0.681,3.724-1.022,5.964-1.022
			c1.25,0,2.469,0.098,3.654,0.294c1.185,0.196,2.31,0.486,3.374,0.868c1.063,0.383,2.058,0.84,2.981,1.372
			c0.924,0.532,1.75,1.134,2.479,1.806L345.396,13.159z"/>
	</g>
</g>
<g id="Layer_2_xA0_Image_1_">
	<path id="path3055" fill="#FFFFFF" d="M380.635,7.399c0.029,0.02,0.057,0.042,0.087,0.058
		c0.354,0.2,0.715,0.39,1.064,0.598c0.454,0.27,0.892,0.568,1.316,0.883c1.164,0.863,2.202,1.857,3.116,2.98
		c0.864,1.065,1.592,2.217,2.186,3.454c0.251,0.524,0.474,1.059,0.672,1.604c0.01,0.027,0.017,0.054,0.023,0.079
		c-0.065,0.045-2.115,0.786-2.282,0.827c-1.44-3.838-3.976-6.686-7.673-8.481c-3.731-1.719-7.537-1.875-11.405-0.562
		c-0.271-0.758-0.543-1.521-0.812-2.271c0.126-0.05,0.269-0.116,0.416-0.164c1.866-0.613,3.78-0.907,5.743-0.874
		c1.241,0.021,2.466,0.174,3.674,0.461c0.648,0.153,1.286,0.342,1.913,0.572c0.324,0.119,0.645,0.255,0.965,0.382
		c0.036,0.014,0.074,0.022,0.11,0.034C380.044,7.119,380.339,7.259,380.635,7.399z"/>
	<path id="path3059" fill="#FFFFFF" d="M384.506,18.7c-0.771,0.277-1.531,0.549-2.295,0.823
		c-0.966-2.579-2.661-4.516-5.162-5.698c-2.498-1.182-5.069-1.264-7.672-0.379c-0.271-0.761-0.541-1.521-0.818-2.294
		c1.525-0.546,3.11-0.799,4.742-0.725c2.692,0.124,5.104,1.023,7.217,2.692C382.382,14.592,383.694,16.468,384.506,18.7z"/>
	<path id="path3061" fill="#FFFFFF" d="M371.023,18.051c-0.274-0.769-0.546-1.528-0.817-2.289
		c3.772-1.446,8.314,0.564,9.687,4.578c-0.761,0.272-1.523,0.544-2.29,0.818c-0.491-1.314-1.36-2.31-2.645-2.917
		C373.677,17.635,372.359,17.595,371.023,18.051z"/>
	<g id="g3005_1_">
		<path id="path3011_1_" fill="#FFFFFF" d="M364.369,29.14c3.252,1.556,6.391,3.058,9.611,4.6
			c0.186-0.347,0.346-0.62,0.482-0.907c0.97-2.015,1.926-4.038,2.905-6.05c0.503-1.033,1.064-1.229,2.101-0.769
			c0.625,0.279,1.242,0.58,1.857,0.885c1.112,0.551,1.323,1.119,0.789,2.239c-1.758,3.691-3.528,7.374-5.294,11.062
			c-0.967,2.019-1.932,4.037-2.899,6.053c-0.719,1.499-1.184,1.666-2.653,0.964c-0.538-0.258-1.081-0.506-1.611-0.777
			c-0.948-0.485-1.17-1.073-0.715-2.047c0.96-2.055,1.951-4.094,2.926-6.142c0.126-0.264,0.237-0.535,0.405-0.914
			c-3.199-1.535-6.355-3.049-9.6-4.604c-0.182,0.335-0.343,0.606-0.479,0.892c-0.958,1.988-1.904,3.982-2.864,5.97
			c-0.56,1.158-1.127,1.35-2.299,0.803c-0.621-0.29-1.245-0.577-1.855-0.891c-0.893-0.46-1.145-1.099-0.719-1.991
			c2.824-5.924,5.658-11.844,8.504-17.758c0.432-0.898,1.068-1.1,1.996-0.689c0.682,0.301,1.354,0.624,2.017,0.965
			c0.995,0.513,1.19,1.091,0.702,2.129c-0.929,1.971-1.877,3.93-2.815,5.895C364.709,28.377,364.568,28.701,364.369,29.14z"/>
		<path id="path3013_1_" fill="#FFFFFF" d="M382.91,30.657c0.371,0.162,0.618,0.259,0.856,0.374
			c1.122,0.548,1.333,1.105,0.81,2.224c-0.68,1.458-1.382,2.905-2.016,4.234c0.635,0.673,1.455,1.201,1.716,1.93
			c0.184,0.512-0.296,1.354-0.653,1.944c-0.833,1.376-1.865,0.387-2.938,0.054c-0.453,0.938-0.901,1.864-1.349,2.793
			c-0.194,0.402-0.383,0.808-0.577,1.21c-0.858,1.78-1.479,1.94-3.275,0.739C377.94,41.033,380.404,35.889,382.91,30.657z"/>
		<path id="path3015_1_" fill="#FFFFFF" d="M361.17,20.299c-2.479,5.176-4.94,10.318-7.436,15.529
			c-0.402-0.18-0.729-0.307-1.037-0.47c-0.906-0.478-1.124-1.055-0.695-1.988c0.594-1.298,1.23-2.578,1.844-3.868
			c0.113-0.236,0.204-0.483,0.241-0.571c-0.646-0.636-1.396-1.106-1.711-1.781c-0.193-0.414,0.22-1.169,0.472-1.719
			c0.518-1.134,0.635-1.132,3.146-0.432c0.625-1.298,1.252-2.609,1.886-3.918C358.748,19.282,359.309,19.13,361.17,20.299z"/>
	</g>
</g>
</svg>
